# xmcd CD database file
# Copyright (C) 1997 Ti Kan
#
# Track frame offsets:
#  183
#  13183
#  24570
#  36720
#  47758
#  61120
#  75008
#  89595
#  100608
#  113020
#  125795
#  137708
#  148908
#  159095
#  173195
#  184783
#
# Disc length: 2627 seconds
#
# Revision: 1
# Processed by: cddbd v1.4b41PL1 Copyright (c) Steve Scherf et al.
# Submitted via: CDWizzard Release:4.20
#
DISCID=d20a4110
DTITLE=Great Blues Performers - Blue Heaven
DYEAR=1900
DGENRE=
TTITLE0=Forty Days And Forty Nights
TTITLE1=Boom Boom
TTITLE2=How Many More Years
TTITLE3=Bo Diddley
TTITLE4=My Dearest Darling
TTITLE5=It Hurts Me Too
TTITLE6=Just To Be With You
TTITLE7=No Shoes
TTITLE8=Juke
TTITLE9=Keep It To Yourself
TTITLE10=Losing Hand
TTITLE11=So Many Tears
TTITLE12=Smokestack Lightning
TTITLE13=Say Man
TTITLE14=I'd Rather Go Blind
TTITLE15=Cry For Me Baby
EXTD=
EXTT0=
EXTT1=
EXTT2=
EXTT3=
EXTT4=
EXTT5=
EXTT6=
EXTT7=
EXTT8=
EXTT9=
EXTT10=
EXTT11=
EXTT12=
EXTT13=
EXTT14=
EXTT15=
PLAYORDER=
